<?xml version="1.0" encoding="UTF-8"?>
<!DOCTYPE svg PUBLIC "-//W3C//DTD SVG 1.1//EN" "http://www.w3.org/Graphics/SVG/1.1/DTD/svg11.dtd">
<svg version="1.1" xmlns="http://www.w3.org/2000/svg" xmlns:xlink="http://www.w3.org/1999/xlink" x="0" y="0" width="100" height="100" viewBox="0, 0, 100, 100">
  <g id="Livello_1">
    <g>
      <path d="M89.163,17.139 C75.06,17.139 55.928,34.745 53.322,45.704 C52.753,44.451 51.967,43.56 51.261,43.075 C52.521,38.787 58.612,33.261 59.61,28.817 C59.719,28.333 58.72,27.876 58.595,28.375 C57.279,33.646 52.118,38.313 51.009,42.917 C50.731,42.76 50.473,42.67 50.254,42.653 L50.254,42.65 C50.241,42.65 50.229,42.651 50.216,42.651 C50.203,42.651 50.191,42.65 50.178,42.65 L50.178,42.653 C49.959,42.67 49.701,42.759 49.423,42.917 C48.313,38.313 43.154,33.646 41.837,28.375 C41.712,27.875 40.714,28.333 40.823,28.817 C41.82,33.261 47.912,38.788 49.171,43.075 C48.466,43.561 47.68,44.451 47.111,45.704 C44.506,34.745 25.373,17.139 11.27,17.139 C6.599,17.139 4.533,17.948 4.533,20.463 C4.533,27.739 16.07,49.488 20.241,51.812 C21.968,52.774 24.137,53.019 26.158,52.629 C23.673,54.678 21.869,57.823 21.869,62.142 C21.869,72.516 29.074,77.863 36.152,77.863 C43.801,77.863 47.381,71.266 47.381,54.957 C48.189,56.933 49.088,58.998 49.088,62.593 C49.088,68.814 47.769,76.707 50.18,76.871 L50.18,76.875 C50.193,76.875 50.205,76.873 50.218,76.872 C50.231,76.873 50.243,76.875 50.256,76.875 L50.256,76.87 C52.667,76.706 51.348,68.812 51.348,62.592 C51.348,58.997 52.245,56.932 53.054,54.956 C53.054,71.266 56.634,77.862 64.283,77.862 C71.361,77.862 78.566,72.515 78.566,62.141 C78.566,57.823 76.762,54.677 74.278,52.628 C76.298,53.018 78.466,52.773 80.193,51.811 C84.363,49.487 95.9,27.738 95.9,20.462 C95.9,17.947 93.834,17.139 89.163,17.139 z" fill="#FF9E4A"/>
      <path d="M89.163,17.139 C75.06,17.139 55.928,34.745 53.322,45.704 C52.753,44.451 51.967,43.56 51.261,43.075 C52.521,38.787 58.612,33.261 59.61,28.817 C59.719,28.333 58.72,27.876 58.595,28.375 C57.279,33.646 52.118,38.313 51.009,42.917 C50.731,42.76 50.473,42.67 50.254,42.653 L50.254,42.65 C50.241,42.65 50.229,42.651 50.216,42.651 C50.203,42.651 50.191,42.65 50.178,42.65 L50.178,42.653 C49.959,42.67 49.701,42.759 49.423,42.917 C48.313,38.313 43.154,33.646 41.837,28.375 C41.712,27.875 40.714,28.333 40.823,28.817 C41.82,33.261 47.912,38.788 49.171,43.075 C48.466,43.561 47.68,44.451 47.111,45.704 C44.506,34.745 25.373,17.139 11.27,17.139 C6.599,17.139 4.533,17.948 4.533,20.463 C4.533,27.739 16.07,49.488 20.241,51.812 C21.968,52.774 24.137,53.019 26.158,52.629 C23.673,54.678 21.869,57.823 21.869,62.142 C21.869,72.516 29.074,77.863 36.152,77.863 C43.801,77.863 47.381,71.266 47.381,54.957 C48.189,56.933 49.088,58.998 49.088,62.593 C49.088,68.814 47.769,76.707 50.18,76.871 L50.18,76.875 C50.193,76.875 50.205,76.873 50.218,76.872 C50.231,76.873 50.243,76.875 50.256,76.875 L50.256,76.87 C52.667,76.706 51.348,68.812 51.348,62.592 C51.348,58.997 52.245,56.932 53.054,54.956 C53.054,71.266 56.634,77.862 64.283,77.862 C71.361,77.862 78.566,72.515 78.566,62.141 C78.566,57.823 76.762,54.677 74.278,52.628 C76.298,53.018 78.466,52.773 80.193,51.811 C84.363,49.487 95.9,27.738 95.9,20.462 C95.9,17.947 93.834,17.139 89.163,17.139 z" fill-opacity="0" stroke="#000000" stroke-width="1"/>
    </g>
    <g>
      <path d="M21.201,41.303 C17.361,41.303 14.248,38.23 14.248,34.438 C14.248,30.647 17.361,27.574 21.201,27.574 C25.042,27.574 28.155,30.647 28.155,34.438 C28.155,38.23 25.042,41.303 21.201,41.303 z" fill="#F76464"/>
      <path d="M21.201,41.303 C17.361,41.303 14.248,38.23 14.248,34.438 C14.248,30.647 17.361,27.574 21.201,27.574 C25.042,27.574 28.155,30.647 28.155,34.438 C28.155,38.23 25.042,41.303 21.201,41.303 z" fill-opacity="0" stroke="#F4F2FF" stroke-width="1"/>
    </g>
    <g>
      <path d="M78.201,41.303 C74.361,41.303 71.248,38.23 71.248,34.438 C71.248,30.647 74.361,27.574 78.201,27.574 C82.042,27.574 85.155,30.647 85.155,34.438 C85.155,38.23 82.042,41.303 78.201,41.303 z" fill="#F76464"/>
      <path d="M78.201,41.303 C74.361,41.303 71.248,38.23 71.248,34.438 C71.248,30.647 74.361,27.574 78.201,27.574 C82.042,27.574 85.155,30.647 85.155,34.438 C85.155,38.23 82.042,41.303 78.201,41.303 z" fill-opacity="0" stroke="#F4F2FF" stroke-width="1"/>
    </g>
    <g>
      <path d="M62.745,65.017 C60.814,65.017 59.25,63.472 59.25,61.567 C59.25,59.662 60.814,58.117 62.745,58.117 C64.675,58.117 66.239,59.662 66.239,61.567 C66.239,63.472 64.675,65.017 62.745,65.017 z" fill="#F76464"/>
      <path d="M62.745,65.017 C60.814,65.017 59.25,63.472 59.25,61.567 C59.25,59.662 60.814,58.117 62.745,58.117 C64.675,58.117 66.239,59.662 66.239,61.567 C66.239,63.472 64.675,65.017 62.745,65.017 z" fill-opacity="0" stroke="#F4F2FF" stroke-width="1"/>
    </g>
    <g>
      <path d="M62.533,73.866 C60.603,73.866 59.038,72.321 59.038,70.416 C59.038,68.511 60.603,66.966 62.533,66.966 C64.463,66.966 66.028,68.511 66.028,70.416 C66.028,72.321 64.463,73.866 62.533,73.866 z" fill="#F76464"/>
      <path d="M62.533,73.866 C60.603,73.866 59.038,72.321 59.038,70.416 C59.038,68.511 60.603,66.966 62.533,66.966 C64.463,66.966 66.028,68.511 66.028,70.416 C66.028,72.321 64.463,73.866 62.533,73.866 z" fill-opacity="0" stroke="#F4F2FF" stroke-width="1"/>
    </g>
    <g>
      <path d="M71.391,70.434 C69.461,70.434 67.897,68.89 67.897,66.984 C67.897,65.079 69.461,63.534 71.391,63.534 C73.322,63.534 74.886,65.079 74.886,66.984 C74.886,68.89 73.322,70.434 71.391,70.434 z" fill="#F76464"/>
      <path d="M71.391,70.434 C69.461,70.434 67.897,68.89 67.897,66.984 C67.897,65.079 69.461,63.534 71.391,63.534 C73.322,63.534 74.886,65.079 74.886,66.984 C74.886,68.89 73.322,70.434 71.391,70.434 z" fill-opacity="0" stroke="#F4F2FF" stroke-width="1"/>
    </g>
    <g>
      <path d="M37.782,64.796 C39.712,64.796 41.277,63.251 41.277,61.346 C41.277,59.44 39.712,57.896 37.782,57.896 C35.852,57.896 34.287,59.44 34.287,61.346 C34.287,63.251 35.852,64.796 37.782,64.796 z" fill="#F76464"/>
      <path d="M37.782,64.796 C39.712,64.796 41.277,63.251 41.277,61.346 C41.277,59.44 39.712,57.896 37.782,57.896 C35.852,57.896 34.287,59.44 34.287,61.346 C34.287,63.251 35.852,64.796 37.782,64.796 z" fill-opacity="0" stroke="#F4F2FF" stroke-width="1"/>
    </g>
    <g>
      <path d="M37.994,73.866 C39.924,73.866 41.489,72.321 41.489,70.416 C41.489,68.511 39.924,66.966 37.994,66.966 C36.064,66.966 34.499,68.511 34.499,70.416 C34.499,72.321 36.064,73.866 37.994,73.866 z" fill="#F76464"/>
      <path d="M37.994,73.866 C39.924,73.866 41.489,72.321 41.489,70.416 C41.489,68.511 39.924,66.966 37.994,66.966 C36.064,66.966 34.499,68.511 34.499,70.416 C34.499,72.321 36.064,73.866 37.994,73.866 z" fill-opacity="0" stroke="#F4F2FF" stroke-width="1"/>
    </g>
    <g>
      <path d="M29.577,70.213 C31.507,70.213 33.072,68.668 33.072,66.763 C33.072,64.858 31.507,63.313 29.577,63.313 C27.647,63.313 26.082,64.858 26.082,66.763 C26.082,68.668 27.647,70.213 29.577,70.213 z" fill="#F76464"/>
      <path d="M29.577,70.213 C31.507,70.213 33.072,68.668 33.072,66.763 C33.072,64.858 31.507,63.313 29.577,63.313 C27.647,63.313 26.082,64.858 26.082,66.763 C26.082,68.668 27.647,70.213 29.577,70.213 z" fill-opacity="0" stroke="#F4F2FF" stroke-width="1"/>
    </g>
  </g>
</svg>